<?xml version="1.0" encoding="utf-8"?>
<!-- Generator: Adobe Illustrator 26.5.0, SVG Export Plug-In . SVG Version: 6.00 Build 0)  -->
<svg version="1.1" id="Livello_1" xmlns="http://www.w3.org/2000/svg" xmlns:xlink="http://www.w3.org/1999/xlink" x="0px" y="0px"
	 viewBox="0 0 1024 1024" style="enable-background:new 0 0 1024 1024;" xml:space="preserve">
<g id="Livello_3">
	<path d="M827.6,286.3c0-14.8-1.6-29.6-8.2-42.8c-19.7-51-62.5-80.6-116.8-80.6H301.4c-11.5,0-23,0-34.5,1.6
		c-32.9,3.3-59.2,18.1-78.9,42.8c-19.7,23-28,51-28,82.2v416c0,34.5,11.5,64.1,36.2,88.8c24.7,23,54.3,34.5,87.2,34.5h203.9
		c6.6,0,6.6-3.3,3.3-8.2c-8.2-13.2-14.8-28-19.7-42.8c-1.6-4.9-4.9-8.2-11.5-8.2H428c-4.9,0-8.2-1.6-8.2-8.2V631.7
		c0-4.9,1.6-8.2,8.2-8.2h31.2c6.6,0,9.9-1.6,11.5-8.2c4.9-14.8,11.5-28,19.7-42.8c3.3-6.6,3.3-8.2-4.9-8.2h-55.9
		c-6.6,0-9.9-1.6-9.9-9.9V427.8c0-6.6,3.3-9.9,9.9-9.9h125c6.6,0,9.9,1.6,9.9,9.9v55.9c0,8.2,1.6,8.2,8.2,4.9
		c13.2-8.2,28-14.8,42.8-19.7c4.9-1.6,8.2-4.9,8.2-11.5v-31.2c0-6.6,1.6-8.2,8.2-8.2h128.3c6.6,0,8.2,1.6,8.2,8.2V459
		c0,4.9,1.6,8.2,6.6,9.9c14.8,4.9,28,11.5,41.1,19.7c6.6,3.3,9.9,1.1,9.9-6.6C827.6,421.2,827.6,353.8,827.6,286.3L827.6,286.3z
		 M219.2,281.4c0-29.6,28-57.6,57.6-57.6H354c6.6,0,9.9,1.6,9.9,9.9v64.1l0,0v62.5c0,6.6-1.6,9.9-9.9,9.9H227.4
		c-6.6,0-9.9-3.3-9.9-9.9C219.2,332.4,219.2,306.1,219.2,281.4L219.2,281.4z M219.2,431c0-6.6,1.6-9.9,9.9-9.9h125
		c6.6,0,9.9,1.6,9.9,9.9v125c0,6.6-1.6,9.9-9.9,9.9h-125c-6.6,0-9.9-1.6-9.9-9.9C219.2,514.9,219.2,472.2,219.2,431z M365.6,761.6
		c0,6.6-1.6,9.9-9.9,9.9h-78.9c-29.6,0-57.6-28-57.6-57.6v-78.9c0-6.6,3.3-8.2,9.9-8.2h126.6c8.2,0,9.9,1.6,9.9,9.9
		C363.9,677.7,363.9,718.8,365.6,761.6L365.6,761.6z M562.9,358.7c0,6.6-3.3,9.9-9.9,9.9h-125c-6.6,0-9.9-3.3-9.9-9.9v-125
		c0-6.6,3.3-9.9,9.9-9.9h125c6.6,0,9.9,3.3,9.9,9.9V358.7z M758.6,368.6H632c-6.6,0-9.9-1.6-9.9-9.9V232.1c0-6.6,3.3-9.9,9.9-9.9
		h77.3c29.6,0,57.6,28,57.6,59.2v77.3C768.4,365.3,765.2,368.6,758.6,368.6L758.6,368.6z"/>
	<path d="M696.1,493.5c-111.8,0-207.2,93.7-205.6,203.9l0,0C487.2,806,577.7,903,694.4,903S900,812.6,900,697.5
		S804.6,493.5,696.1,493.5L696.1,493.5z M804.6,728.7c-3.3,4.9-8.2,8.2-13.2,8.2H678c-9.9,0-16.4-6.6-16.4-16.4v-65.8l0,0v-64.1
		c0-11.5,4.9-18.1,14.8-19.7c8.2-1.6,16.4,4.9,19.7,16.4c0,3.3,1.6,8.2,1.6,11.5v92.1c0,8.2,3.3,9.9,9.9,9.9h82.2
		C804.6,704,811.2,717.2,804.6,728.7L804.6,728.7z"/>
</g>
</svg>
