<?xml version="1.0" encoding="UTF-8"?>
<svg xmlns="http://www.w3.org/2000/svg" xmlns:xlink="http://www.w3.org/1999/xlink" viewBox="0 0 1024 1024">
  <defs>
    <style>
      .cls-1 {
        fill: #000;
      }

      .cls-2 {
        opacity: .25;
      }
    </style>
  </defs>
  <g id="Livello_3" data-name="Livello 3">
    <path class="cls-1" d="M678.82,409.67c0-7.4-.82-14.8-4.11-21.38-9.87-25.49-31.24-40.29-58.38-40.29h-200.62c-5.76,0-11.51,0-17.27,.82-16.44,1.64-29.6,9.04-39.47,21.38-9.87,11.51-13.98,25.49-13.98,41.11v208.02c0,17.27,5.76,32.07,18.09,44.4,12.33,11.51,27.13,17.27,43.58,17.27h101.96c3.29,0,3.29-1.64,1.64-4.11-4.11-6.58-7.4-13.98-9.87-21.38-.82-2.47-2.47-4.11-5.76-4.11h-15.62c-2.47,0-4.11-.82-4.11-4.11v-64.96c0-2.47,.82-4.11,4.11-4.11h15.62c3.29,0,4.93-.82,5.76-4.11,2.47-7.4,5.76-13.98,9.87-21.38,1.64-3.29,1.64-4.11-2.47-4.11h-27.96c-3.29,0-4.93-.82-4.93-4.93v-63.31c0-3.29,1.64-4.93,4.93-4.93h62.49c3.29,0,4.93,.82,4.93,4.93v27.96c0,4.11,.82,4.11,4.11,2.47,6.58-4.11,13.98-7.4,21.38-9.87,2.47-.82,4.11-2.47,4.11-5.76v-15.62c0-3.29,.82-4.11,4.11-4.11h64.13c3.29,0,4.11,.82,4.11,4.11v16.44c0,2.47,.82,4.11,3.29,4.93,7.4,2.47,13.98,5.76,20.56,9.87q4.93,2.47,4.93-3.29c.82-30.42,.82-64.13,.82-97.84Zm-304.22-2.47c0-14.8,13.98-28.78,28.78-28.78h38.64c3.29,0,4.93,.82,4.93,4.93v32.07h0v31.24c0,3.29-.82,4.93-4.93,4.93h-63.31c-3.29,0-4.93-1.64-4.93-4.93,.82-13.98,.82-27.13,.82-39.47Zm0,74.82c0-3.29,.82-4.93,4.93-4.93h62.49c3.29,0,4.93,.82,4.93,4.93v62.49c0,3.29-.82,4.93-4.93,4.93h-62.49c-3.29,0-4.93-.82-4.93-4.93,0-20.56,0-41.93,0-62.49Zm73.18,165.27c0,3.29-.82,4.93-4.93,4.93h-39.47c-14.8,0-28.78-13.98-28.78-28.78v-39.47c0-3.29,1.64-4.11,4.93-4.11h63.31c4.11,0,4.93,.82,4.93,4.93-.82,20.56-.82,41.11,0,62.49Zm98.67-201.44c0,3.29-1.64,4.93-4.93,4.93h-62.49c-3.29,0-4.93-1.64-4.93-4.93v-62.49c0-3.29,1.64-4.93,4.93-4.93h62.49c3.29,0,4.93,1.64,4.93,4.93v62.49Zm97.84,4.93h-63.31c-3.29,0-4.93-.82-4.93-4.93v-63.31c0-3.29,1.64-4.93,4.93-4.93h38.64c14.8,0,28.78,13.98,28.78,29.6v38.64c.82,3.29-.82,4.93-4.11,4.93Z"/>
    <path class="cls-1" d="M613.04,513.27c-55.91,0-103.6,46.87-102.78,101.96h0c-1.64,54.27,43.58,102.78,101.96,102.78s102.78-45.22,102.78-102.78-47.69-101.96-101.96-101.96Zm54.27,117.58c-1.64,2.47-4.11,4.11-6.58,4.11h-56.73c-4.93,0-8.22-3.29-8.22-8.22v-32.89h0v-32.07c0-5.76,2.47-9.04,7.4-9.87,4.11-.82,8.22,2.47,9.87,8.22,0,1.64,.82,4.11,.82,5.76v46.04c0,4.11,1.64,4.93,4.93,4.93h41.11c7.4,1.64,10.69,8.22,7.4,13.98Z"/>
  </g>
</svg>