<?xml version="1.0" encoding="UTF-8"?>
<svg id="Livello_1" data-name="Livello 1" xmlns="http://www.w3.org/2000/svg" viewBox="0 0 459.14 459.1">
  <defs>
    <style>
      .cls-1 {
        fill: #fff;
      }
    </style>
  </defs>
  <path d="M.05,206.92c0-42.95-.05-85.9,.02-128.85,.03-18.73,5.06-35.88,17.25-50.43C30.04,12.48,46.18,3.4,65.98,.91,73.29,0,80.58,.01,87.9,.01c82.74,0,165.47-.03,248.21,0,33.6,.01,60.53,18.36,72.73,49.49,3.38,8.63,4.67,17.75,4.71,26.91,.16,41.62,.08,83.24,.07,124.85,0,6.72-.28,6.81-6.13,3.59-8.31-4.57-16.69-9.04-25.72-12.06-3.01-1.01-4.22-2.76-4.17-5.88,.11-6.66-.07-13.32,.05-19.98,.06-3.58-1.36-5.1-5.01-5.09-26.64,.07-53.27,.07-79.91,0-3.66,0-5.07,1.52-5,5.1,.12,6.49-.12,12.99,.08,19.47,.11,3.56-1.29,5.55-4.6,6.68-9.33,3.18-18.1,7.53-26.52,12.65-3.87,2.35-4.87,1.72-4.9-2.96-.08-11.65-.18-23.31,.04-34.96,.09-4.62-1.67-6.06-6.16-6.03-25.97,.14-51.94,.13-77.91,.01-4.22-.02-5.95,1.32-5.93,5.74,.13,26.14,.13,52.27,0,78.41-.02,4.33,1.53,5.9,5.84,5.83,11.65-.19,23.31-.1,34.96-.03,4.93,.03,5.5,1,3.01,5.18-4.95,8.32-9.33,16.9-12.43,26.08-1.2,3.55-3.35,4.9-7.08,4.77-6.48-.22-12.98,.02-19.47-.07-3.39-.05-4.78,1.44-4.77,4.8,.05,26.8,.05,53.6,0,80.41,0,3.46,1.61,4.72,4.9,4.68,6.49-.09,12.99,.16,19.47-.07,3.81-.14,5.84,1.41,6.99,4.9,3.09,9.37,7.36,18.19,12.59,26.55,1.9,3.03,1.55,4.64-2.33,4.6-.83,0-1.66,.01-2.5,.01-41.45,0-82.9,.17-124.35-.07-20.59-.12-38.8-6.89-53.76-21.51C7.4,376.83,.23,358.13,.12,336.77c-.23-43.28-.07-86.57-.07-129.85Z"/>
  <path d="M206.74,332.45c-1.75-68.22,57.59-126.53,126.31-126.1,67.56,.41,126.09,54.77,126.1,126.12,0,70.42-55.62,126.61-126.62,126.64-72.04,.03-127.48-59.91-125.78-126.65Z"/>
  <path class="cls-1" d="M251.77,81.47c0,12.8-.14,25.61,.07,38.41,.08,4.58-1.61,6.08-6.12,6.06-25.94-.15-51.88-.15-77.82,0-4.58,.03-6.08-1.6-6.06-6.12,.15-25.94,.15-51.88,0-77.82-.03-4.58,1.6-6.08,6.12-6.06,25.94,.15,51.88,.15,77.82,0,4.58-.03,6.13,1.6,6.06,6.12-.2,13.13-.07,26.27-.07,39.41Z"/>
  <path class="cls-1" d="M125.91,206.78c0,12.97-.13,25.94,.07,38.91,.07,4.54-1.51,6.13-6.07,6.1-25.94-.15-51.88-.15-77.82,0-4.53,.03-6.13-1.51-6.11-6.07,.15-25.94,.15-51.88,0-77.82-.03-4.53,1.52-6.13,6.08-6.1,25.94,.15,51.88,.15,77.82,0,4.53-.03,6.18,1.5,6.1,6.07-.21,12.97-.07,25.94-.07,38.91Z"/>
  <path class="cls-1" d="M125.91,81.16c0,12.98-.11,25.95,.06,38.93,.06,4.31-1.5,5.86-5.82,5.84-26.12-.13-52.24-.13-78.36,0-4.35,.02-5.84-1.58-5.8-5.86,.16-15.97-.09-31.94,.13-47.91,.25-18.47,17.6-35.83,36.06-36.08,15.97-.22,31.94,.04,47.91-.13,4.27-.04,5.94,1.42,5.88,5.79-.18,13.14-.07,26.28-.07,39.43Z"/>
  <path class="cls-1" d="M332.4,125.87c-12.81,0-25.62-.12-38.43,.07-4.35,.06-6.3-1.14-6.27-5.9,.17-26.12,.15-52.24,.01-78.36-.02-4.43,1.74-5.76,5.94-5.72,15.97,.16,31.94-.1,47.91,.13,18.46,.26,35.76,17.65,36,36.14,.21,15.97-.04,31.94,.13,47.91,.05,4.35-1.58,5.86-5.87,5.8-13.14-.17-26.28-.06-39.43-.06Z"/>
  <path class="cls-1" d="M81.07,287.73c12.81,0,25.62,.14,38.43-.08,4.62-.08,6.53,1.27,6.5,6.2-.18,25.95-.14,51.91-.03,77.86,.02,4.21-1.29,5.99-5.72,5.94-16.14-.18-32.28,.12-48.41-.14-17.92-.29-35.34-17.54-35.69-35.41-.31-16.3,0-32.61-.15-48.91-.04-4.15,1.62-5.55,5.64-5.5,13.14,.14,26.28,.05,39.43,.05Z"/>
  <path class="cls-1" d="M310.74,304.13c0-12.97-.04-25.94,0-38.91,.03-6.97,3.45-11.2,9.46-11.97,5.45-.7,10.43,3.38,11.74,9.88,.49,2.42,.61,4.95,.62,7.43,.05,18.96,.15,37.92-.05,56.87-.05,4.85,1.73,6.35,6.42,6.3,16.96-.18,33.92-.15,50.89-.02,8.58,.07,13.36,8.36,9.31,15.78-1.83,3.36-4.71,5.09-8.53,5.09-23.28,.02-46.56,.08-69.85-.04-6.54-.03-9.92-3.7-9.98-10.5-.11-13.3-.03-26.61-.04-39.91Z"/>
</svg>