<?xml version="1.0" encoding="UTF-8"?>
<svg id="Livello_2" data-name="Livello 2" xmlns="http://www.w3.org/2000/svg" viewBox="0 0 1024 1024">
  <defs>
    <style>
      .cls-1 {
        fill: #fff;
      }
      .cls-2 {
        fill: #000;
      }
    </style>
  </defs>
  <g id="Livello_1-2" data-name="Livello 1">
    <g>
<!--       <path d="M512,1023.91c-169.14,0-338.27-.01-507.41,.09C.84,1024,0,1023.16,0,1019.41,.1,681.14,.1,342.86,0,4.59,0,.84,.84,0,4.59,0c338.27,.1,676.54,.1,1014.82,0,3.75,0,4.59,.84,4.59,4.59-.1,338.27-.1,676.54,0,1014.81,0,3.75-.84,4.6-4.59,4.59-169.14-.11-338.27-.09-507.41-.09Z"/> -->
      <path class="cls-1" d="M303.01,509.13c0-42.99-.05-85.98,.02-128.98,.03-18.74,5.07-35.92,17.27-50.48,12.73-15.18,28.88-24.27,48.7-26.76,7.31-.92,14.61-.9,21.94-.9,82.82,0,165.64-.03,248.45,0,33.63,.01,60.59,18.38,72.81,49.54,3.38,8.64,4.68,17.76,4.71,26.93,.16,41.66,.08,83.32,.07,124.98,0,6.72-.28,6.81-6.14,3.59-8.32-4.58-16.71-9.05-25.74-12.08-3.01-1.01-4.23-2.76-4.17-5.89,.11-6.66-.07-13.33,.05-19.99,.06-3.59-1.36-5.11-5.01-5.1-26.66,.07-53.32,.07-79.98,0-3.66,0-5.07,1.52-5,5.1,.12,6.5-.12,13,.08,19.49,.11,3.57-1.29,5.56-4.61,6.69-9.34,3.18-18.11,7.54-26.54,12.66-3.88,2.36-4.87,1.72-4.9-2.96-.08-11.66-.18-23.33,.04-34.99,.09-4.63-1.67-6.06-6.16-6.04-25.99,.14-51.99,.13-77.98,.01-4.23-.02-5.96,1.32-5.94,5.74,.13,26.16,.13,52.32,0,78.48-.02,4.33,1.53,5.9,5.85,5.83,11.66-.19,23.33-.1,34.99-.03,4.94,.03,5.5,1,3.01,5.19-4.96,8.32-9.34,16.92-12.45,26.11-1.2,3.55-3.35,4.9-7.09,4.78-6.49-.22-13,.02-19.49-.07-3.4-.05-4.78,1.44-4.77,4.81,.05,26.83,.05,53.66,0,80.48,0,3.47,1.61,4.72,4.9,4.68,6.5-.09,13,.16,19.49-.07,3.81-.14,5.84,1.41,7,4.91,3.09,9.37,7.37,18.21,12.6,26.57,1.9,3.03,1.55,4.64-2.34,4.61-.83,0-1.67,.01-2.5,.01-41.49,0-82.99,.17-124.48-.07-20.61-.12-38.84-6.9-53.81-21.53-15.52-15.18-22.7-33.9-22.81-55.28-.23-43.32-.07-86.65-.07-129.97Z"/>
      <path class="cls-1" d="M635.91,508.9c68.33-1.37,126.68,54.87,126.66,125.97-.03,68.98-54.04,126.19-126.34,126.69-70.55,.49-126.9-58.26-126.68-127.36,.22-67.82,57.94-127.07,126.37-125.3Z"/>
      <path class="cls-2" d="M554.97,383.44c0,12.98-.09,25.97,.05,38.95,.04,4-1.32,5.68-5.49,5.66-26.3-.11-52.6-.1-78.9,0-4,.02-5.68-1.32-5.66-5.49,.11-26.3,.1-52.6,0-78.9-.02-4,1.32-5.68,5.49-5.66,26.3,.11,52.6,.12,78.9-.01,4.49-.02,5.72,1.85,5.67,6-.16,13.15-.06,26.3-.06,39.45Z"/>
      <path class="cls-2" d="M428.99,509.51c0,12.82-.14,25.64,.07,38.45,.08,4.57-1.57,6.1-6.11,6.08-25.97-.15-51.93-.15-77.9,0-4.56,.03-6.11-1.57-6.08-6.11,.15-25.97,.15-51.93,0-77.9-.03-4.57,1.58-6.1,6.11-6.08,25.97,.15,51.93,.15,77.9,0,4.56-.03,6.15,1.57,6.08,6.11-.21,13.15-.07,26.3-.07,39.45Z"/>
      <path class="cls-2" d="M428.99,383.24c0,12.99-.11,25.98,.06,38.97,.06,4.31-1.5,5.86-5.83,5.84-26.14-.13-52.29-.13-78.43,0-4.35,.02-5.85-1.58-5.81-5.87,.16-15.98-.09-31.97,.13-47.96,.25-18.48,17.62-35.86,36.1-36.11,15.98-.22,31.97,.04,47.96-.13,4.27-.04,5.95,1.42,5.88,5.79-.18,13.15-.07,26.31-.07,39.47Z"/>
      <path class="cls-2" d="M591.01,382.57c0-12.82,.13-25.65-.07-38.47-.07-4.53,1.49-6.18,6.07-6.13,15.82,.2,31.64-.05,47.46,.13,18.81,.21,36.2,17.52,36.43,36.3,.2,15.98-.02,31.97,.11,47.96,.03,3.99-1.29,5.7-5.47,5.68-26.31-.11-52.62-.12-78.93,.01-4.51,.02-5.69-1.89-5.64-6.02,.16-13.15,.06-26.31,.06-39.47Z"/>
      <path class="cls-2" d="M384.11,590.01c12.82,0,25.65,.14,38.47-.08,4.62-.08,6.54,1.27,6.5,6.2-.18,25.98-.14,51.96-.03,77.93,.02,4.21-1.29,5.99-5.73,5.95-16.15-.18-32.31,.12-48.46-.15-17.94-.29-35.37-17.56-35.72-35.45-.31-16.31,0-32.64-.15-48.96-.04-4.15,1.62-5.55,5.65-5.51,13.15,.14,26.31,.05,39.47,.05Z"/>
      <path class="cls-2" d="M614.01,606.43c0-12.98-.04-25.97,0-38.95,.03-6.98,3.45-11.21,9.47-11.98,5.45-.7,10.44,3.39,11.75,9.89,.49,2.42,.61,4.95,.62,7.43,.05,18.98,.15,37.95-.05,56.93-.05,4.85,1.73,6.36,6.42,6.31,16.98-.18,33.96-.15,50.94-.02,8.59,.07,13.37,8.36,9.32,15.8-1.83,3.37-4.71,5.1-8.53,5.1-23.3,.02-46.61,.08-69.91-.04-6.54-.03-9.93-3.71-9.99-10.51-.11-13.32-.03-26.63-.04-39.95Z"/>
    </g>
  </g>
</svg>