<?xml version="1.0" encoding="utf-8"?>
<!-- Generator: Adobe Illustrator 26.5.0, SVG Export Plug-In . SVG Version: 6.00 Build 0)  -->
<svg version="1.1" id="Livello_1" xmlns="http://www.w3.org/2000/svg" xmlns:xlink="http://www.w3.org/1999/xlink" x="0px" y="0px"
	 viewBox="0 0 1024 1024" style="enable-background:new 0 0 1024 1024;" xml:space="preserve">
<style type="text/css">
	.st0{fill:#FFFFFF;}
</style>
<path class="st0" d="M844.3,1024H179.7C80.5,1024,0,943.5,0,844.3V179.7C0,80.5,80.5,0,179.7,0h664.6C943.5,0,1024,80.5,1024,179.7
	v664.6C1024,943.5,943.5,1024,844.3,1024z"/>
<g id="Livello_3">
	<path d="M792.5,336.2c0-12.5-1.3-24.9-6.9-36c-16.6-42.9-52.6-67.9-98.4-67.9H349.3c-9.7,0-19.4,0-29.1,1.3
		c-27.7,2.8-49.9,15.2-66.4,36c-16.6,19.4-23.6,42.9-23.6,69.2v350.3c0,29.1,9.7,54,30.5,74.8c20.8,19.4,45.7,29.1,73.4,29.1h171.7
		c5.6,0,5.6-2.8,2.8-6.9c-6.9-11.1-12.5-23.6-16.6-36c-1.3-4.1-4.1-6.9-9.7-6.9h-26.4c-4.1,0-6.9-1.3-6.9-6.9V627.1
		c0-4.1,1.3-6.9,6.9-6.9h26.3c5.6,0,8.3-1.3,9.7-6.9c4.1-12.5,9.7-23.6,16.6-36c2.8-5.6,2.8-6.9-4.1-6.9h-47.1
		c-5.6,0-8.3-1.3-8.3-8.3V455.4c0-5.6,2.8-8.3,8.3-8.3h105.3c5.6,0,8.3,1.3,8.3,8.3v47.1c0,6.9,1.3,6.9,6.9,4.1
		c11.1-6.9,23.6-12.5,36-16.6c4.1-1.3,6.9-4.1,6.9-9.7V454c0-5.6,1.3-6.9,6.9-6.9h108.1c5.6,0,6.9,1.3,6.9,6.9v27.6
		c0,4.1,1.3,6.9,5.6,8.3c12.5,4.1,23.6,9.7,34.6,16.6c5.6,2.8,8.3,0.9,8.3-5.6C792.5,449.8,792.5,393.1,792.5,336.2L792.5,336.2z
		 M280.1,332.1c0-24.9,23.6-48.5,48.5-48.5h65c5.6,0,8.3,1.3,8.3,8.3v54l0,0v52.6c0,5.6-1.3,8.3-8.3,8.3H287c-5.6,0-8.3-2.8-8.3-8.3
		C280.1,375,280.1,352.9,280.1,332.1L280.1,332.1z M280.1,458.1c0-5.6,1.3-8.3,8.3-8.3h105.3c5.6,0,8.3,1.3,8.3,8.3v105.3
		c0,5.6-1.3,8.3-8.3,8.3H288.4c-5.6,0-8.3-1.3-8.3-8.3C280.1,528.7,280.1,492.8,280.1,458.1z M403.4,736.4c0,5.6-1.3,8.3-8.3,8.3
		h-66.4c-24.9,0-48.5-23.6-48.5-48.5v-66.4c0-5.6,2.8-6.9,8.3-6.9H395c6.9,0,8.3,1.3,8.3,8.3C401.9,665.8,401.9,700.4,403.4,736.4
		L403.4,736.4z M569.5,397.2c0,5.6-2.8,8.3-8.3,8.3H455.9c-5.6,0-8.3-2.8-8.3-8.3V291.9c0-5.6,2.8-8.3,8.3-8.3h105.3
		c5.6,0,8.3,2.8,8.3,8.3V397.2z M734.3,405.5H627.7c-5.6,0-8.3-1.3-8.3-8.3V290.6c0-5.6,2.8-8.3,8.3-8.3h65.1
		c24.9,0,48.5,23.6,48.5,49.9v65.1C742.6,402.7,739.9,405.5,734.3,405.5L734.3,405.5z"/>
	<path d="M681.7,510.7c-94.2,0-174.5,78.9-173.2,171.7l0,0c-2.8,91.4,73.4,173.1,171.7,173.1s173.2-76.1,173.2-173
		S773.1,510.7,681.7,510.7L681.7,510.7z M773.1,708.7c-2.8,4.1-6.9,6.9-11.1,6.9h-95.5c-8.3,0-13.8-5.6-13.8-13.8v-55.4l0,0v-54
		c0-9.7,4.1-15.2,12.5-16.6c6.9-1.3,13.8,4.1,16.6,13.8c0,2.8,1.3,6.9,1.3,9.7v77.6c0,6.9,2.8,8.3,8.3,8.3h69.2
		C773.1,687.9,778.6,699.1,773.1,708.7L773.1,708.7z"/>
</g>
</svg>
